<?xml version="1.0" encoding="utf-8"?>
<!-- Svg Vector Icons : http://www.onlinewebfonts.com/icon -->
<!DOCTYPE svg PUBLIC "-//W3C//DTD SVG 1.1//EN" "http://www.w3.org/Graphics/SVG/1.1/DTD/svg11.dtd">
<svg version="1.1" xmlns="http://www.w3.org/2000/svg" xmlns:xlink="http://www.w3.org/1999/xlink" x="0px" y="0px" viewBox="0 0 256 256" enable-background="new 0 0 256 256" xml:space="preserve">
<metadata> Svg Vector Icons : http://www.onlinewebfonts.com/icon </metadata>
<g> <path fill="#000000" d="M168,93.9c2.7,19.6-2.5,41.6-18.9,53c-11.7,8.2-27.8,7.4-37.3,3c-19.5-9.1-26.1-30.9-24.7-51.2 c2.3-32.1,21.5-46.3,39.7-46.1C151.5,52.5,164.6,69.4,168,93.9z M246,39.5v177c0,16.3-13.2,29.5-29.5,29.5h-177 C23.2,246,10,232.8,10,216.5v-177C10,23.2,23.2,10,39.5,10h177C232.8,10,246,23.2,246,39.5z M183.8,158.1c0,0-0.1-17.9-0.1-114.5 h-15.3v21.2c-0.4,0.2-0.6-0.3-0.8-0.6c-5.1-10.9-18.9-24.4-40-24.2c-27.3,0.2-45.9,16.4-53,41c-2.3,7.8-3.1,15.9-2.9,24 c0.9,41,23.8,62.1,59.2,60.7c15.2-0.6,28.7-9,36.3-23.8c0.3-0.5,0.6-1,0.9-1.5c0.1,0.1,0.2,0.1,0.3,0.1c0.2,2,0.1,16.2,0.1,18.2 c-0.1,7.8-1.1,15.5-3.8,22.9c-4.1,11.1-11.7,18.3-23.4,20.8c-9.4,2.1-18.8,2-28-0.6c-11.3-3.2-19.2-10-21.7-22 c-0.2-0.8-0.7-0.7-1.2-0.7H76.3c0.4,5.6,1.7,10.7,4.5,15.4c12.7,21.3,43.6,25.5,67.5,19.7C174.6,207.6,183.8,185.2,183.8,158.1 L183.8,158.1z"/></g>
</svg>