<svg width="56" height="56" viewBox="0 0 56 56" fill="none" xmlns="http://www.w3.org/2000/svg">
  <rect width="56" height="56" fill="#E5E7EB"/>
  <path d="M28 29C30.2091 29 32 27.2091 32 25C32 22.7909 30.2091 21 28 21C25.7909 21 24 22.7909 24 25C24 27.2091 25.7909 29 28 29Z" stroke="#9CA3AF" stroke-width="2" stroke-linecap="round" stroke-linejoin="round"/>
  <path d="M21.63 34.37C22.48 33.52 23.5 32.84 24.62 32.38C25.74 31.92 26.93 31.68 28.13 31.68C29.33 31.68 30.52 31.92 31.64 32.38C32.76 32.84 33.78 33.52 34.63 34.37" stroke="#9CA3AF" stroke-width="2" stroke-linecap="round" stroke-linejoin="round"/>
  <path d="M28 38C33.5228 38 38 33.5228 38 28C38 22.4772 33.5228 18 28 18C22.4772 18 18 22.4772 18 28C18 33.5228 22.4772 38 28 38Z" stroke="#9CA3AF" stroke-width="2" stroke-linecap="round" stroke-linejoin="round"/>
</svg>
