<svg xmlns="http://www.w3.org/2000/svg" width="250" height="149" version="1.1"><path fill="#000" d="M0 0 C3.125 0.375 3.125 0.375 4.72216797 2.28662109 C6.63940505 6.50747892 7.12617293 10.58880732 7.6953125 15.1640625 C7.82187225 16.10430267 7.94843201 17.04454285 8.0788269 18.01327515 C8.47994614 21.00754246 8.86558031 24.00354713 9.25 27 C9.64449112 30.00312972 10.04217774 33.00580323 10.44259644 36.00814819 C10.69045438 37.87400167 10.93434268 39.74038767 11.17385864 41.60733032 C11.28422455 42.4518576 11.39459045 43.29638489 11.50830078 44.16650391 C11.60362091 44.90865143 11.69894104 45.65079895 11.79714966 46.41543579 C12.10725651 48.5806803 12.10725651 48.5806803 13.125 51.375 C19.20793204 49.78599666 25.01874211 47.68513022 30.8203125 45.2734375 C31.84375763 44.84843964 31.84375763 44.84843964 32.88787842 44.41485596 C35.72805374 43.23060362 38.56541166 42.03995062 41.39892578 40.83984375 C43.49418401 39.95480668 45.59430403 39.08221881 47.6953125 38.2109375 C48.32261261 37.94115082 48.94991272 37.67136414 49.59622192 37.3934021 C56.75809497 34.44147766 62.58725902 33.62416548 69.875 36.625 C70.51969238 36.88297363 71.16438477 37.14094727 71.82861328 37.40673828 C73.34399098 38.01377855 74.85629043 38.62853369 76.36621094 39.24902344 C81.58344849 41.37839508 86.83219238 43.42899584 92.07629395 45.49108887 C93.98729619 46.24498829 95.89570511 47.0051548 97.80371094 47.76660156 C98.9796582 48.23291992 100.15560547 48.69923828 101.3671875 49.1796875 C102.4279248 49.60233887 103.48866211 50.02499023 104.58154297 50.46044922 C106.98819159 51.48778707 106.98819159 51.48778707 109.125 51.375 C110.67431616 43.26456466 112.04689999 35.15527608 113.109375 26.96484375 C113.27791992 25.67344482 113.44646484 24.3820459 113.62011719 23.05151367 C113.9536141 20.45788176 114.27737234 17.86297687 114.59082031 15.2668457 C114.74647461 14.05988037 114.90212891 12.85291504 115.0625 11.609375 C115.19527344 10.52881836 115.32804688 9.44826172 115.46484375 8.33496094 C116.18208404 5.11905072 117.13325398 2.99515147 119.125 0.375 C122.1875 -0.0625 122.1875 -0.0625 125.125 0.375 C127.59705889 2.84705889 127.59035993 4.09895643 128.08984375 7.51953125 C128.24864014 8.57978516 128.40743652 9.64003906 128.57104492 10.73242188 C128.7332251 11.87259766 128.89540527 13.01277344 129.0625 14.1875 C129.23434814 15.34701172 129.40619629 16.50652344 129.58325195 17.70117188 C130.41815461 23.36378776 131.21939769 29.03105305 132.015625 34.69921875 C132.15105713 35.66045654 132.28648926 36.62169434 132.42602539 37.61206055 C132.67949407 39.42412944 132.92882536 41.23678292 133.17358398 43.05004883 C133.68259477 47.34320143 133.68259477 47.34320143 135.125 51.375 C141.4846836 49.74007899 147.5211931 47.47948778 153.58203125 44.984375 C154.3378952 44.67415405 155.09375916 44.36393311 155.87252808 44.04431152 C159.03315244 42.74352851 162.19150913 41.43777872 165.34350586 40.11621094 C167.66839733 39.143962 169.99948343 38.18808031 172.33203125 37.234375 C173.04043655 36.93239197 173.74884186 36.63040894 174.47871399 36.3192749 C178.39969164 34.73061031 181.06529137 33.92513817 185.125 35.375 C186.125 36.375 186.125 36.375 186.49609375 39.6484375 C186.125 43.375 186.125 43.375 184.09765625 45.7890625 C183.13730469 46.51867188 182.17695313 47.24828125 181.1875 48 C180.66188477 48.40968018 180.13626953 48.81936035 179.59472656 49.24145508 C177.78746633 50.64153678 175.95714175 52.00766834 174.125 53.375 C171.94427793 55.03643037 169.76782871 56.70335676 167.59155273 58.37060547 C166.1540484 59.46785241 164.71238114 60.55967507 163.26586914 61.64501953 C158.35494811 65.34521166 153.7023126 69.26996196 149.125 73.375 C151.06423901 77.75109186 154.1567328 80.07446683 157.875 82.9375 C158.87067993 83.71879272 158.87067993 83.71879272 159.88647461 84.51586914 C161.96101136 86.14205649 164.04292018 87.75848753 166.125 89.375 C168.04829317 90.8811763 169.96931323 92.39020145 171.88964844 93.90014648 C173.05161325 94.81296105 174.21493383 95.7240536 175.37988281 96.63305664 C176.96698988 97.87349104 178.54610197 99.12413335 180.125 100.375 C180.69283203 100.79563721 181.26066406 101.21627441 181.84570312 101.6496582 C185.98016342 104.82172425 185.98016342 104.82172425 186.7109375 107.61328125 C186.515625 109.53385417 186.3203125 111.45442708 186.125 113.375 C182.83195969 115.02152016 179.71311058 114.85328251 176.20141602 113.79568481 C173.99512131 112.95792465 171.82599161 112.05723172 169.65625 111.12890625 C168.85771606 110.79833725 168.05918213 110.46776825 167.2364502 110.12718201 C164.69503234 109.07387204 162.15971074 108.00683862 159.625 106.9375 C157.08972803 105.8732255 154.55326562 104.81215804 152.0135498 103.75852966 C150.43700261 103.10399774 148.86303142 102.44321521 147.29211426 101.77528381 C143.23404243 100.08531809 139.5319329 98.89015826 135.125 98.375 C134.98400879 99.36717529 134.84301758 100.35935059 134.69775391 101.3815918 C134.16545911 105.1260015 133.63218107 108.87027067 133.09863281 112.61450195 C132.86953091 114.2231888 132.64068209 115.83191171 132.41210938 117.44067383 C131.75814712 122.04278975 131.09739531 126.64384967 130.43029785 131.24407959 C130.14053448 133.26657234 129.86241602 135.29072343 129.58496094 137.31494141 C129.33794434 139.05590088 129.33794434 139.05590088 129.0859375 140.83203125 C128.94720215 141.83854736 128.8084668 142.84506348 128.66552734 143.88208008 C128.125 146.375 128.125 146.375 126.125 149.375 C124.1796875 149.66796875 124.1796875 149.66796875 122 149.5625 C120.72125 149.500625 119.4425 149.43875 118.125 149.375 C115.32143119 143.65489807 114.30609898 138.36062465 113.51953125 132.06640625 C113.32613411 130.61632423 113.32613411 130.61632423 113.12882996 129.13694763 C112.72221305 126.07162805 112.32965667 123.00469957 111.9375 119.9375 C111.66303843 117.84948704 111.38765739 115.76159473 111.11132812 113.67382812 C110.43857072 108.57555326 109.77841078 103.47578896 109.125 98.375 C103.88627739 98.98522143 99.5859462 100.68345649 94.796875 102.75390625 C93.17605947 103.43490736 91.55495642 104.11522447 89.93359375 104.79492188 C87.40498676 105.86275736 84.87900375 106.93577618 82.35791016 108.02124023 C79.90653458 109.07323494 77.4465055 110.10238266 74.984375 111.12890625 C74.24548035 111.45387589 73.50658569 111.77884552 72.74530029 112.11366272 C65.55435784 115.07810005 58.85596326 115.57930754 51.47314453 112.90625 C49.89388504 112.2468068 48.32219643 111.5689948 46.7578125 110.875 C45.49479813 110.34229492 45.49479813 110.34229492 44.20626831 109.79882812 C41.54670403 108.67421343 38.89815062 107.52620188 36.25 106.375 C33.57900102 105.22767359 30.90598 104.08556383 28.22946167 102.95117188 C26.57201107 102.24730577 24.9179558 101.53537615 23.26785278 100.81445312 C22.5196225 100.49412109 21.77139221 100.17378906 21.00048828 99.84375 C20.34670197 99.55951172 19.69291565 99.27527344 19.01931763 98.98242188 C16.82172494 98.17143919 16.82172494 98.17143919 13.125 98.375 C12.87592896 100.31934937 12.87592896 100.31934937 12.62182617 102.30297852 C12.00032159 107.13313425 11.36531781 111.96143688 10.72631836 116.78930664 C10.45214963 118.87509172 10.18159503 120.96135529 9.91479492 123.0480957 C9.52962901 126.05554572 9.13129801 129.06100869 8.73046875 132.06640625 C8.61470993 132.99272354 8.49895111 133.91904083 8.37968445 134.87342834 C7.65437859 140.19919168 6.49366496 144.54222936 4.125 149.375 C2.84625 149.436875 1.5675 149.49875 0.25 149.5625 C-0.46929687 149.59730469 -1.18859375 149.63210937 -1.9296875 149.66796875 C-2.57164063 149.57128906 -3.21359375 149.47460938 -3.875 149.375 C-5.87468356 146.37547465 -6.25528248 145.08078472 -6.74462891 141.62817383 C-6.88462311 140.66740433 -7.02461731 139.70663483 -7.16885376 138.7167511 C-7.31164764 137.68229355 -7.45444153 136.647836 -7.6015625 135.58203125 C-7.75410492 134.52086594 -7.90664734 133.45970062 -8.06381226 132.36637878 C-8.54972481 128.9743984 -9.02497902 125.58102109 -9.5 122.1875 C-9.82742455 119.888572 -10.15554096 117.58974243 -10.484375 115.29101562 C-11.28928383 109.65346157 -12.08544536 104.01472378 -12.875 98.375 C-18.14259417 98.99076718 -22.51253916 100.69974484 -27.34375 102.75390625 C-28.98298233 103.43446303 -30.6223081 104.11479476 -32.26171875 104.79492188 C-34.8240313 105.86660873 -37.38485201 106.94165635 -39.94384766 108.02124023 C-42.42761119 109.06627028 -44.91650426 110.0982265 -47.40625 111.12890625 C-48.54555969 111.6163607 -48.54555969 111.6163607 -49.70788574 112.11366272 C-53.91763458 113.84838762 -57.23456841 114.84943088 -61.875 114.375 C-62.535 114.045 -63.195 113.715 -63.875 113.375 C-64.15654835 110.47288625 -64.34335387 108.21394502 -63.875 105.375 C-61.96227735 103.10227227 -60.51648677 101.71231588 -58.1875 100 C-57.60242676 99.53867676 -57.01735352 99.07735352 -56.41455078 98.60205078 C-54.58555286 97.16851187 -52.73291336 95.77077279 -50.875 94.375 C-49.74980393 93.50714727 -48.62605461 92.63741489 -47.50390625 91.765625 C-45.35857907 90.10336433 -43.20417828 88.45404198 -41.04296875 86.8125 C-36.22989845 83.1092252 -31.54867065 79.25255441 -26.875 75.375 C-28.18085098 72.41736415 -29.45174927 70.61268822 -31.97265625 68.59765625 C-32.60155762 68.09016846 -33.23045898 67.58268066 -33.87841797 67.05981445 C-34.55791504 66.52445068 -35.23741211 65.98908691 -35.9375 65.4375 C-36.63762207 64.87699951 -37.33774414 64.31649902 -38.05908203 63.73901367 C-44.12443632 58.90730216 -50.27803352 54.18847324 -56.46508789 49.51391602 C-57.48397095 48.74325806 -57.48397095 48.74325806 -58.5234375 47.95703125 C-59.12333496 47.50561768 -59.72323242 47.0542041 -60.34130859 46.58911133 C-61.875 45.375 -61.875 45.375 -63.875 43.375 C-64.1875 39.875 -64.1875 39.875 -63.875 36.375 C-60.875 34.375 -60.875 34.375 -58.26660156 34.52514648 C-53.867795 35.62738127 -49.79747459 37.24874439 -45.609375 38.97265625 C-44.73476624 39.32637802 -43.86015747 39.68009979 -42.95904541 40.04454041 C-40.17865625 41.16977854 -37.4016324 42.30302671 -34.625 43.4375 C-31.83372479 44.57460618 -29.04176377 45.70992594 -26.24810791 46.84117126 C-24.51270162 47.5442069 -22.77872522 48.25078437 -21.04632568 48.9611969 C-20.26501282 49.27830124 -19.48369995 49.59540558 -18.67871094 49.92211914 C-17.99065369 50.20334122 -17.30259644 50.48456329 -16.59368896 50.77430725 C-14.86377185 51.48497842 -14.86377185 51.48497842 -12.875 51.375 C-10.42131584 41.60570194 -9.34697895 31.61262002 -8.05224609 21.63867188 C-7.73834998 19.23229374 -7.41648924 16.8270807 -7.09375 14.421875 C-7.00097778 13.68845886 -6.90820557 12.95504272 -6.81262207 12.19940186 C-5.25542788 0.68549059 -5.25542788 0.68549059 0 0 Z M50.625 53.1875 C49.21715185 54.37879407 47.80827648 55.56887515 46.3984375 56.7578125 C45.69041992 57.36141602 44.98240234 57.96501953 44.25292969 58.58691406 C40.98588545 61.33219079 37.62229185 63.94844079 34.25 66.5625 C30.04238309 69.79932903 30.04238309 69.79932903 26.125 73.375 C26.32785556 75.96304434 26.85601589 77.10239463 28.68457031 78.95556641 C29.35069336 79.45749512 30.01681641 79.95942383 30.703125 80.4765625 C31.8173584 81.32903564 31.8173584 81.32903564 32.95410156 82.19873047 C33.75299805 82.79314941 34.55189453 83.38756836 35.375 84 C37.02105119 85.24450357 38.66688297 86.48929739 40.3125 87.734375 C41.12847656 88.34732422 41.94445312 88.96027344 42.78515625 89.59179688 C44.89058008 91.19634776 46.95248609 92.83822196 49 94.515625 C49.57588867 94.98145996 50.15177734 95.44729492 50.74511719 95.92724609 C52.27818931 97.17143195 53.80343354 98.42524558 55.328125 99.6796875 C58.72712424 101.73997475 60.21867443 102.12048198 64.125 101.375 C66.62983527 99.70510982 68.7506087 98.08727338 71 96.125 C72.31018916 95.02328769 73.62277577 93.92442144 74.9375 92.828125 C75.61683594 92.25900391 76.29617187 91.68988281 76.99609375 91.10351562 C81.21971397 87.674246 85.66575931 84.52339872 90.10888672 81.38574219 C90.75100098 80.91813477 91.39311523 80.45052734 92.0546875 79.96875 C92.62429199 79.56333984 93.19389648 79.15792969 93.78076172 78.74023438 C95.44617941 77.04880399 95.73785912 75.68434753 96.125 73.375 C90.65004926 68.31031688 84.96313841 63.59978261 79.01074219 59.11035156 C74.67057001 55.83297492 70.52537877 52.36733332 66.44140625 48.7734375 C59.77984052 44.75178399 55.63438804 48.79492585 50.625 53.1875 Z" transform="translate(63.875,-0.375)"/></svg>