<svg xmlns="http://www.w3.org/2000/svg" width="1280" height="1130.667" preserveAspectRatio="xMidYMid meet" version="1.0" viewBox="0 0 960 848"><metadata>Created by potrace 1.16, written by Peter Selinger 2001-2019</metadata><g fill="#000" stroke="none"><path d="M735 8314 c-165 -26 -321 -124 -411 -258 -105 -155 -157 -377 -156 -671 1 -393 137 -2000 213 -2505 44 -296 127 -517 278 -742 305 -454 773 -716 1451 -809 146 -21 572 -18 743 4 148 20 196 18 75 -2 -40 -6 -145 -29 -233 -51 -833 -202 -1347 -566 -1485 -1051 -27 -96 -37 -277 -21 -389 48 -322 246 -648 612 -1005 396 -385 754 -599 1111 -661 117 -20 298 -14 414 15 408 101 767 456 1079 1068 98 192 181 389 289 693 62 172 96 255 106 255 10 0 44 -83 105 -255 216 -602 407 -967 673 -1289 318 -383 714 -556 1116 -486 350 61 712 277 1105 660 251 245 380 413 492 640 90 185 129 339 129 515 -1 518 -427 947 -1190 1199 -131 44 -438 122 -553 142 -114 19 -68 21 69 2 161 -21 601 -24 744 -5 489 66 857 217 1160 477 245 210 447 539 529 863 60 236 163 1238 237 2317 35 509 14 752 -81 961 -42 92 -72 136 -142 207 -293 295 -920 189 -1608 -273 -751 -504 -1728 -1622 -2457 -2810 -102 -166 -235 -402 -289 -512 -18 -38 -36 -68 -39 -68 -3 0 -18 26 -34 58 -243 499 -822 1357 -1321 1957 -412 495 -879 963 -1234 1234 -362 276 -739 469 -1071 547 -103 24 -328 40 -405 28z" transform="translate(0.000000,848.000000) scale(0.100000,-0.100000)"/></g></svg>