<svg xmlns="http://www.w3.org/2000/svg" viewBox="-2.5 -0.5 61 54"><g fill="#000" stroke="#000" stroke-width="3"><circle cx="1" cy="26.5" r="1.6"/><circle cx="55" cy="26.5" r="1.6"/><circle cx="42" cy="50" r="1.6"/><circle cx="14" cy="50" r="1.6"/><circle cx="42" cy="3" r="1.6"/><circle cx="14" cy="3" r="1.6"/><circle cx="27.9" cy="5.6" r="1.75"/><circle cx="46.2" cy="16" r="1.75"/><circle cx="46.2" cy="36.8" r="1.75"/><circle cx="28" cy="47.1" r="1.75"/><circle cx="10" cy="36.7" r="1.75"/><circle cx="9.9" cy="16" r="1.75"/><circle cx="28" cy="14.1" r="2.1"/><circle cx="17.3" cy="20.5" r="2.1"/><circle cx="17.3" cy="32.5" r="2.1"/><circle cx="28" cy="38.8" r="2.1"/><circle cx="38.8" cy="32.5" r="2.1"/><circle cx="38.8" cy="20" r="2.1"/></g><path fill="none" stroke="#000" stroke-width="4" d="m 28.13612,13.931185 -10.891017,6.287931 v 12.414341 l 10.734826,6.197755 10.805203,-6.238387 7.377961,4.259668"/></svg>